<?xml version="1.0" standalone="no"?>
<!DOCTYPE svg PUBLIC "-//W3C//DTD SVG 20010904//EN"
 "http://www.w3.org/TR/2001/REC-SVG-20010904/DTD/svg10.dtd">
<svg version="1.0" xmlns="http://www.w3.org/2000/svg"
 width="511.000000pt" height="511.000000pt" viewBox="0 0 511.000000 511.000000"
 preserveAspectRatio="xMidYMid meet">
<metadata>
Created by potrace 1.11, written by Peter Selinger 2001-2013
</metadata>
<g transform="translate(0.000000,511.000000) scale(0.100000,-0.100000)"
fill="#000000" stroke="none">
<path d="M2445 5064 c-73 -42 -174 -97 -265 -146 -19 -10 -53 -29 -75 -41 -22
-13 -69 -39 -105 -59 -85 -47 -1032 -568 -1107 -609 -32 -17 -71 -39 -88 -49
-16 -9 -59 -33 -95 -52 -129 -69 -207 -112 -327 -180 -68 -37 -127 -68 -133
-68 -7 0 -9 -426 -8 -1286 l3 -1286 40 -22 c22 -13 148 -83 280 -156 132 -73
254 -141 270 -150 17 -9 55 -30 85 -47 30 -17 208 -115 395 -218 187 -104 365
-202 395 -218 30 -16 69 -38 85 -47 17 -10 57 -32 90 -50 33 -19 74 -42 90
-52 17 -10 37 -21 45 -25 8 -4 135 -73 283 -155 l267 -148 393 221 c491 278
766 433 809 457 57 32 93 53 588 332 129 73 251 142 270 153 19 11 79 44 133
74 l97 55 0 1291 -1 1292 -67 33 c-37 18 -98 49 -137 70 -66 36 -346 185 -515
275 -41 22 -108 57 -147 78 -72 38 -131 70 -308 164 -49 26 -117 62 -150 80
-33 18 -105 56 -160 85 -55 29 -122 65 -150 80 -27 15 -99 53 -160 85 -60 32
-123 66 -140 75 -16 10 -79 43 -140 75 -60 32 -142 75 -182 96 -39 22 -73 39
-75 39 -1 0 -39 -21 -83 -46z"/>
</g>
</svg>
